<!--
  undraw_printing_invoices_osgs.svg
  Source: https://undraw.co/illustrations
  License: MIT
  Description: Illustration for printing invoices
-->
<svg width="800" height="600" viewBox="0 0 800 600" fill="none" xmlns="http://www.w3.org/2000/svg">
  <rect width="800" height="600" fill="#F4F6FA"/>
  <g>
    <rect x="180" y="120" width="440" height="360" rx="32" fill="#fff" stroke="#B3C2E2" stroke-width="4"/>
    <rect x="220" y="180" width="360" height="40" rx="8" fill="#E3EAFD"/>
    <rect x="220" y="240" width="200" height="20" rx="6" fill="#E3EAFD"/>
    <rect x="220" y="280" width="120" height="20" rx="6" fill="#E3EAFD"/>
    <rect x="220" y="320" width="180" height="20" rx="6" fill="#E3EAFD"/>
    <rect x="220" y="360" width="100" height="20" rx="6" fill="#E3EAFD"/>
    <rect x="220" y="400" width="80" height="20" rx="6" fill="#E3EAFD"/>
    <rect x="420" y="240" width="160" height="180" rx="12" fill="#F9D8D6"/>
    <rect x="440" y="260" width="120" height="20" rx="6" fill="#fff"/>
    <rect x="440" y="300" width="80" height="20" rx="6" fill="#fff"/>
    <rect x="440" y="340" width="100" height="20" rx="6" fill="#fff"/>
    <rect x="440" y="380" width="60" height="20" rx="6" fill="#fff"/>
    <circle cx="600" cy="180" r="24" fill="#B3C2E2"/>
    <rect x="590" y="170" width="20" height="20" rx="4" fill="#fff"/>
  </g>
  <g>
    <ellipse cx="400" cy="540" rx="180" ry="20" fill="#E3EAFD"/>
  </g>
</svg>
